<?xml version="1.0" standalone="no"?>
<!DOCTYPE svg PUBLIC "-//W3C//DTD SVG 20001102//EN" "http://www.w3.org/TR/2000/CR-SVG-20001102/DTD/svg-20001102.dtd">
<svg xmlns="http://www.w3.org/2000/svg" width="457" x="60" y="90" height="349" id="C:\Documents and Settings\Administrator\My Documents\SIMetrix\opamp" >
 <line style="stroke:rgb(255,0,0);stroke-width:1;fill:none;" y1="270" y2="270" x1="270" x2="330" />
 <line style="stroke:rgb(255,0,0);stroke-width:1;fill:none;" y1="288" y2="288" x1="294" x2="306" />
 <line style="stroke:rgb(255,0,0);stroke-width:1;fill:none;" y1="279" y2="279" x1="282" x2="318" />
 <line style="stroke:rgb(255,0,0);stroke-width:1;fill:none;" y1="240" y2="270" x1="300" x2="300" />
 <g style="stroke:rgb(0,0,0);stroke-width:0.9;fill:none;" >
  <text y="14" transform="translate(427,150)" style="fill:rgb(0,0,0);stroke-width:0;font-size:11;font-style:normal;font-weight:400;font-family:Arial;" >Vout</text>
 </g>
 <line style="stroke:rgb(255,0,0);stroke-width:1;fill:none;" y1="180" y2="165" x1="390" x2="405" />
 <line style="stroke:rgb(255,0,0);stroke-width:1;fill:none;" y1="165" y2="165" x1="405" x2="420" />
 <line style="stroke:rgb(255,0,0);stroke-width:1;fill:none;" y1="165" y2="150" x1="405" x2="405" />
 <line style="stroke:rgb(255,0,0);stroke-width:1;fill:none;" y1="330" y2="330" x1="60" x2="120" />
 <line style="stroke:rgb(255,0,0);stroke-width:1;fill:none;" y1="348" y2="348" x1="84" x2="96" />
 <line style="stroke:rgb(255,0,0);stroke-width:1;fill:none;" y1="339" y2="339" x1="72" x2="108" />
 <line style="stroke:rgb(255,0,0);stroke-width:1;fill:none;" y1="300" y2="330" x1="90" x2="90" />
 <g style="stroke:rgb(0,0,0);stroke-width:0.9;fill:none;" >
  <text y="14" transform="translate(245,311)" style="fill:rgb(0,0,0);stroke-width:0;font-size:11;font-style:normal;font-weight:400;font-family:Arial;" >R2</text>
 </g>
 <line style="stroke:rgb(255,0,0);stroke-width:1;fill:none;" y1="291" y2="291" x1="232" x2="277" />
 <line style="stroke:rgb(255,0,0);stroke-width:1;fill:none;" y1="291" y2="309" x1="277" x2="277" />
 <line style="stroke:rgb(255,0,0);stroke-width:1;fill:none;" y1="300" y2="300" x1="232" x2="210" />
 <line style="stroke:rgb(255,0,0);stroke-width:1;fill:none;" y1="300" y2="300" x1="277" x2="300" />
 <line style="stroke:rgb(255,0,0);stroke-width:1;fill:none;" y1="309" y2="291" x1="232" x2="232" />
 <line style="stroke:rgb(255,0,0);stroke-width:1;fill:none;" y1="309" y2="309" x1="277" x2="232" />
 <g style="stroke:rgb(0,0,0);stroke-width:0.9;fill:none;" >
  <text y="14" transform="translate(261,101)" style="fill:rgb(0,0,0);stroke-width:0;font-size:11;font-style:normal;font-weight:400;font-family:Arial;" >X1</text>
 </g>
 <g style="stroke:rgb(0,0,0);stroke-width:0.9;fill:none;" >
  <text y="14" transform="translate(248,242)" style="fill:rgb(0,0,0);stroke-width:0;font-size:11;font-style:normal;font-weight:400;font-family:Arial;" >LM358</text>
 </g>
 <line style="stroke:rgb(255,0,0);stroke-width:1;fill:none;" y1="150" y2="150" x1="210" x2="240" />
 <line style="stroke:rgb(255,0,0);stroke-width:1;fill:none;" y1="210" y2="210" x1="210" x2="240" />
 <line style="stroke:rgb(255,0,0);stroke-width:1;fill:none;" y1="120" y2="240" x1="240" x2="240" />
 <line style="stroke:rgb(255,0,0);stroke-width:1;fill:none;" y1="120" y2="180" x1="240" x2="330" />
 <line style="stroke:rgb(255,0,0);stroke-width:1;fill:none;" y1="240" y2="180" x1="240" x2="330" />
 <line style="stroke:rgb(255,0,0);stroke-width:1;fill:none;" y1="159" y2="120" x1="300" x2="300" />
 <line style="stroke:rgb(255,0,0);stroke-width:1;fill:none;" y1="201" y2="240" x1="300" x2="300" />
 <line style="stroke:rgb(255,0,0);stroke-width:1;fill:none;" y1="135" y2="135" x1="307" x2="319" />
 <line style="stroke:rgb(255,0,0);stroke-width:1;fill:none;" y1="225" y2="225" x1="309" x2="318" />
 <line style="stroke:rgb(255,0,0);stroke-width:1;fill:none;" y1="129" y2="141" x1="313" x2="313" />
 <line style="stroke:rgb(255,0,0);stroke-width:1;fill:none;" y1="150" y2="150" x1="249" x2="261" />
 <line style="stroke:rgb(255,0,0);stroke-width:1;fill:none;" y1="210" y2="210" x1="250" x2="259" />
 <line style="stroke:rgb(255,0,0);stroke-width:1;fill:none;" y1="144" y2="156" x1="255" x2="255" />
 <g style="stroke:rgb(0,0,0);stroke-width:0.9;fill:none;" >
  <text y="14" transform="translate(127,150)" style="fill:rgb(0,0,0);stroke-width:0;font-size:11;font-style:normal;font-weight:400;font-family:Arial;" >5</text>
 </g>
 <g style="stroke:rgb(0,0,0);stroke-width:0.9;fill:none;" >
  <text y="14" transform="translate(127,168)" style="fill:rgb(0,0,0);stroke-width:0;font-size:11;font-style:normal;font-weight:400;font-family:Arial;" >V1</text>
 </g>
 <line style="stroke:rgb(255,0,0);stroke-width:1;fill:none;" y1="195" y2="195" x1="84" x2="96" />
 <line style="stroke:rgb(255,0,0);stroke-width:1;fill:none;" y1="150" y2="180" x1="90" x2="90" />
 <line style="stroke:rgb(255,0,0);stroke-width:1;fill:none;" y1="189" y2="201" x1="90" x2="90" />
 <line style="stroke:rgb(255,0,0);stroke-width:1;fill:none;" y1="240" y2="270" x1="90" x2="90" />
 <circle cx="90" cy="210" style="stroke:rgb(255,0,0);stroke-width:1;fill:none;" r="30" />
 <g style="stroke:rgb(0,0,0);stroke-width:0.9;fill:none;" >
  <text y="14" transform="translate(155,311)" style="fill:rgb(0,0,0);stroke-width:0;font-size:11;font-style:normal;font-weight:400;font-family:Arial;" >R1</text>
 </g>
 <line style="stroke:rgb(255,0,0);stroke-width:1;fill:none;" y1="291" y2="291" x1="142" x2="187" />
 <line style="stroke:rgb(255,0,0);stroke-width:1;fill:none;" y1="291" y2="309" x1="187" x2="187" />
 <line style="stroke:rgb(255,0,0);stroke-width:1;fill:none;" y1="300" y2="300" x1="142" x2="120" />
 <line style="stroke:rgb(255,0,0);stroke-width:1;fill:none;" y1="300" y2="300" x1="187" x2="210" />
 <line style="stroke:rgb(255,0,0);stroke-width:1;fill:none;" y1="309" y2="291" x1="142" x2="142" />
 <line style="stroke:rgb(255,0,0);stroke-width:1;fill:none;" y1="309" y2="309" x1="187" x2="142" />
 <g style="stroke:rgb(0,0,0);stroke-width:0.9;fill:none;" >
  <text y="14" transform="translate(151,119)" style="fill:rgb(0,0,0);stroke-width:0;font-size:11;font-style:normal;font-weight:400;font-family:Arial;" >Vin</text>
 </g>
 <line style="stroke:rgb(255,0,0);stroke-width:1;fill:none;" y1="150" y2="135" x1="210" x2="195" />
 <line style="stroke:rgb(255,0,0);stroke-width:1;fill:none;" y1="135" y2="120" x1="195" x2="195" />
 <line style="stroke:rgb(255,0,0);stroke-width:1;fill:none;" y1="135" y2="135" x1="195" x2="180" />
 <line style="stroke:rgb(0,128,0);stroke-width:1;fill:none;" y1="90" y2="150" x1="90" x2="90" />
 <line style="stroke:rgb(0,128,0);stroke-width:1;fill:none;" y1="120" y2="90" x1="300" x2="300" />
 <line style="stroke:rgb(0,128,0);stroke-width:1;fill:none;" y1="270" y2="300" x1="90" x2="90" />
 <line style="stroke:rgb(0,128,0);stroke-width:1;fill:none;" y1="180" y2="300" x1="360" x2="360" />
 <line style="stroke:rgb(0,128,0);stroke-width:1;fill:none;" y1="300" y2="210" x1="210" x2="210" />
 <rect width="11" x="205" y="295" height="11" style="stroke:rgb(0,0,0);stroke-width:0;fill:rgb(0,128,0);" />
 <line style="stroke:rgb(0,128,0);stroke-width:1;fill:none;" y1="180" y2="180" x1="330" x2="360" />
 <line style="stroke:rgb(0,128,0);stroke-width:1;fill:none;" y1="300" y2="300" x1="360" x2="300" />
 <line style="stroke:rgb(0,128,0);stroke-width:1;fill:none;" y1="300" y2="300" x1="90" x2="120" />
 <rect width="11" x="85" y="295" height="11" style="stroke:rgb(0,0,0);stroke-width:0;fill:rgb(0,128,0);" />
 <line style="stroke:rgb(0,128,0);stroke-width:1;fill:none;" y1="180" y2="180" x1="360" x2="390" />
 <rect width="11" x="355" y="175" height="11" style="stroke:rgb(0,0,0);stroke-width:0;fill:rgb(0,128,0);" />
 <line style="stroke:rgb(0,128,0);stroke-width:1;fill:none;" y1="90" y2="90" x1="300" x2="90" />
</svg>
